<svg width="30" height="30" fill="none" xmlns="http://www.w3.org/2000/svg"><path d="M25.468 9.099a6.723 6.723 0 00-1.45-2.14 6.725 6.725 0 00-9.017-.432A6.727 6.727 0 0010.731 5a6.712 6.712 0 00-4.747 1.959A6.71 6.71 0 004 11.732c0 .86.173 1.757.517 2.67.288.762.7 1.553 1.227 2.351.836 1.264 1.984 2.582 3.41 3.918 2.364 2.215 4.704 3.744 4.803 3.806l.604.393a.808.808 0 00.878 0l.604-.393c.1-.064 2.437-1.591 4.803-3.806 1.426-1.336 2.574-2.654 3.41-3.918.527-.798.942-1.59 1.227-2.352.344-.912.517-1.809.517-2.67a6.664 6.664 0 00-.532-2.632z" fill="#60CAE5"/></svg>