<svg width="30" height="30" fill="none" xmlns="http://www.w3.org/2000/svg"><path d="M29.262 9.948a.879.879 0 00.202-1.118l-2.208-3.824a.879.879 0 00-1.07-.384l-.75.282 3.206 5.554.62-.51zM17.201 20.922c-1.577.494-3.166 1.136-4.61 1.969l-.764.441 3.275 5.672a.878.878 0 001.2.322l3.553-2.05a.879.879 0 00.321-1.201l-2.975-5.153zM3.753 16.286a2.053 2.053 0 00-1.02 1.938L.446 19.52a.88.88 0 00-.328 1.204l2.07 3.585a.878.878 0 001.194.325l2.247-1.271c.367.296.825.457 1.293.457.347 0 .7-.089 1.022-.275l2.243-1.295-4.191-7.258-2.243 1.295zm26.129-.162L21.147.996a.879.879 0 00-.758-.44h-.003a.879.879 0 00-.759.436c-.054.093-5.477 9.29-12.11 13.12l4.191 7.258c3.7-2.136 8.218-3.09 11.356-3.515 3.423-.463 5.997-.413 6.037-.413a.88.88 0 00.781-1.318z" fill="#000"/></svg>