<svg width="30" height="30" fill="none" xmlns="http://www.w3.org/2000/svg"><g clip-path="url(#clip0)"><path d="M28.354 11.742l-2.35-.298a11.814 11.814 0 00-.712-1.718l1.452-1.869c.587-.756.518-1.823-.153-2.473l-1.969-1.969a1.863 1.863 0 00-2.48-.159l-1.867 1.451a11.767 11.767 0 00-1.719-.71l-.299-2.347A1.872 1.872 0 0016.4 0h-2.8c-.946 0-1.745.709-1.857 1.646l-.3 2.35c-.597.194-1.172.432-1.718.711l-1.867-1.45c-.755-.587-1.823-.52-2.474.152L3.415 5.376a1.864 1.864 0 00-.159 2.483l1.451 1.867a11.55 11.55 0 00-.71 1.718l-2.347.298A1.872 1.872 0 000 13.6v2.8c0 .946.709 1.745 1.646 1.858l2.35.298c.194.596.433 1.171.711 1.718l-1.45 1.868c-.588.757-.52 1.824.152 2.474l1.969 1.969a1.865 1.865 0 002.48.157l1.868-1.45c.546.28 1.121.518 1.718.71l.298 2.346A1.872 1.872 0 0013.6 30h2.8c.946 0 1.745-.709 1.858-1.646l.298-2.35a11.817 11.817 0 001.718-.712l1.868 1.452c.757.587 1.824.518 2.474-.153l1.969-1.969a1.862 1.862 0 00.159-2.48l-1.451-1.868c.28-.547.518-1.122.71-1.718l2.346-.299a1.872 1.872 0 001.65-1.857v-2.8a1.87 1.87 0 00-1.645-1.857zM15 21.25A6.257 6.257 0 018.75 15 6.257 6.257 0 0115 8.75 6.257 6.257 0 0121.25 15 6.257 6.257 0 0115 21.25z" fill="#000"/></g><defs><clipPath id="clip0"><path fill="#fff" d="M0 0h30v30H0z"/></clipPath></defs></svg>