<svg width="30" height="30" fill="none" xmlns="http://www.w3.org/2000/svg"><g clip-path="url(#clip0)" fill="#000"><path d="M29.82 15.415a1.224 1.224 0 00-1.695-.433l-4.11 2.38-1.046.613v5.697l.974.577c.036 0 .036.036.072.036l4.038 2.343c.18.145.433.217.685.217.686 0 1.226-.541 1.226-1.226v-4.832l.036-4.76c0-.216-.036-.432-.18-.612zM5.806 13.576A5.801 5.801 0 0011.61 7.77a5.801 5.801 0 00-5.805-5.806A5.801 5.801 0 000 7.771c-.036 3.209 2.596 5.805 5.806 5.805zm0-8.185a2.377 2.377 0 012.38 2.38 2.377 2.377 0 01-2.38 2.38 2.4 2.4 0 01-2.38-2.38C3.39 6.436 4.47 5.39 5.806 5.39zM20.517 13.9c-.938.469-1.983.757-3.101.757a6.742 6.742 0 01-3.75-1.118h-4.11a6.742 6.742 0 01-3.75 1.118c-1.118 0-2.164-.252-3.101-.757a2.819 2.819 0 00-1.407 2.416v8.798a2.931 2.931 0 002.921 2.92h14.82a2.931 2.931 0 002.92-2.92v-8.798c-.036-1.01-.613-1.947-1.442-2.416z"/><path d="M17.416 13.576a5.801 5.801 0 005.805-5.805 5.801 5.801 0 00-5.805-5.806 5.801 5.801 0 00-5.805 5.806 5.802 5.802 0 005.805 5.805zm0-8.185a2.377 2.377 0 012.38 2.38 2.377 2.377 0 01-2.38 2.38 2.4 2.4 0 01-2.38-2.38 2.355 2.355 0 012.38-2.38z"/></g><defs><clipPath id="clip0"><path fill="#fff" d="M0 0h30v30H0z"/></clipPath></defs></svg>