<svg width="30" height="30" fill="none" xmlns="http://www.w3.org/2000/svg"><path d="M27.562 5a4.062 4.062 0 11-8.125 0 4.062 4.062 0 018.125 0z" fill="#000"/><path d="M23.5 10c-2.758 0-5-2.243-5-5s2.242-5 5-5 5 2.243 5 5-2.242 5-5 5zm0-8.125A3.129 3.129 0 0020.375 5 3.129 3.129 0 0023.5 8.125 3.129 3.129 0 0026.625 5 3.129 3.129 0 0023.5 1.875zM27.562 25a4.062 4.062 0 11-8.124 0 4.062 4.062 0 018.124 0z" fill="#000"/><path d="M23.5 30c-2.758 0-5-2.244-5-5 0-2.758 2.242-5.001 5-5.001s5 2.243 5 5c0 2.758-2.242 5-5 5zm0-8.126a3.129 3.129 0 00-3.125 3.125 3.129 3.129 0 003.125 3.125A3.129 3.129 0 0026.625 25a3.129 3.129 0 00-3.125-3.125zM10.063 15a4.062 4.062 0 11-8.125 0 4.062 4.062 0 018.125 0z" fill="#000"/><path d="M6 20c-2.757 0-5-2.242-5-5s2.243-5 5-5 5 2.242 5 5-2.243 5-5 5zm0-8.125A3.128 3.128 0 002.875 15 3.128 3.128 0 006 18.125 3.128 3.128 0 009.125 15 3.128 3.128 0 006 11.875z" fill="#000"/><path d="M8.95 14.4c-.435 0-.857-.226-1.087-.631a1.252 1.252 0 01.467-1.705l11.6-6.614a1.248 1.248 0 011.705.468 1.252 1.252 0 01-.467 1.705l-11.6 6.612a1.241 1.241 0 01-.617.164zm11.599 10.312c-.21 0-.423-.052-.618-.163L8.332 17.936a1.252 1.252 0 01-.467-1.705c.34-.6 1.105-.811 1.705-.467l11.599 6.612a1.252 1.252 0 01-.62 2.336z" fill="#000"/></svg>