<svg width="30" height="30" fill="none" xmlns="http://www.w3.org/2000/svg"><path d="M29.121 0h-3.574a.878.878 0 00-.879.879v.879h-7.193A2.632 2.632 0 0015 0c-1.144 0-2.11.737-2.475 1.758H5.332v-.88A.878.878 0 004.453 0H.88A.878.878 0 000 .879v3.516c0 .485.393.878.879.878h3.574a.878.878 0 00.879-.878v-.891h3.61c-3.05 1.905-5.062 5.252-5.302 9A2.631 2.631 0 001.816 15a2.64 2.64 0 002.637 2.637A2.64 2.64 0 007.09 15a2.635 2.635 0 00-1.696-2.456c.3-4.179 3.216-7.701 7.272-8.706A2.63 2.63 0 0015 5.273a2.63 2.63 0 002.334-1.435c4.056 1.005 6.972 4.527 7.272 8.706A2.635 2.635 0 0022.91 15a2.64 2.64 0 002.637 2.637A2.64 2.64 0 0028.184 15c0-1.168-.77-2.15-1.824-2.495-.24-3.749-2.251-7.084-5.302-8.99h3.61v.88c0 .485.393.878.879.878h3.574A.878.878 0 0030 4.395V.879A.878.878 0 0029.121 0zM20.98 28.91c-.46-1.407-1.785-2.484-3.343-2.484h-5.274c-1.558 0-2.883 1.077-3.343 2.484-.177.542.285 1.09.855 1.09h10.25c.57 0 1.032-.548.854-1.09z" fill="#000"/><path d="M22.762 18.028L15.88 7.703v8.338a2.632 2.632 0 011.758 2.475A2.64 2.64 0 0115 21.152a2.64 2.64 0 01-2.637-2.636c0-1.145.737-2.111 1.758-2.475V7.703L7.238 18.028a.879.879 0 00.11 1.109c1.613 1.613 2.644 3.692 3.042 5.922a5.233 5.233 0 011.973-.391h5.274a5.25 5.25 0 011.973.39c.398-2.23 1.43-4.308 3.043-5.921a.879.879 0 00.11-1.109z" fill="#000"/><path d="M15 17.637a.88.88 0 10.001 1.759.88.88 0 00-.001-1.76z" fill="#000"/></svg>