<svg width="20" height="21" fill="none" xmlns="http://www.w3.org/2000/svg"><path d="M17.069 7.451a5.244 5.244 0 00-.336-1.78 3.703 3.703 0 00-2.115-2.114 5.304 5.304 0 00-1.755-.337c-.773-.035-1.018-.044-2.979-.044-1.96 0-2.212 0-2.98.044a5.292 5.292 0 00-1.754.337 3.7 3.7 0 00-2.114 2.115 5.263 5.263 0 00-.337 1.754c-.034.774-.045 1.019-.045 2.98 0 1.96 0 2.211.045 2.979.012.6.126 1.193.337 1.756a3.701 3.701 0 002.115 2.114c.56.22 1.153.341 1.755.361.773.035 1.018.045 2.979.045s2.212 0 2.98-.045a5.29 5.29 0 001.755-.336 3.706 3.706 0 002.114-2.115 5.287 5.287 0 00.337-1.756c.034-.773.045-1.017.045-2.98-.002-1.96-.002-2.21-.047-2.978zm-7.19 6.663a3.712 3.712 0 11-.001-7.423 3.712 3.712 0 01.001 7.423zm3.86-6.697a.865.865 0 11-.002-1.729.865.865 0 01.003 1.73z" fill="#000"/><path d="M9.88 12.813a2.412 2.412 0 100-4.823 2.412 2.412 0 000 4.823z" fill="#000"/></svg>