<svg width="30" height="30" fill="none" xmlns="http://www.w3.org/2000/svg"><g clip-path="url(#clip0)" fill="#000"><path d="M29.121 8.53h-3.828v12.06c0 .824 1.03 1.193 1.557.56.206-.248.418-.52.63-.812C29.128 18.06 30 15.5 30 12.935V9.409a.879.879 0 00-.879-.879zm-22.656 0h2.949v6.465h-2.95V8.53zm4.707 0h2.95v6.465h-2.95V8.53zm4.707 0h2.95v6.465h-2.95V8.53zm4.707 0h2.95v6.465h-2.95V8.53zm-15.879 0H.879A.879.879 0 000 9.41v3.525c0 2.564.872 5.124 2.52 7.403.212.293.424.563.63.811.527.634 1.557.265 1.557-.559V8.53z"/><rect x="3.838" y=".424" width="39.993" height="4.035" rx="2.017" transform="rotate(45 3.838 .424)" stroke="#F2F3F5"/></g><defs><clipPath id="clip0"><path fill="#fff" d="M0 0h30v30H0z"/></clipPath></defs></svg>