<svg width="30" height="30" fill="none" xmlns="http://www.w3.org/2000/svg"><g clip-path="url(#clip0)" fill="#000"><path d="M26.678 12.561l1.506-.502V7.031h-6.881a1.91 1.91 0 01-1.909-1.908c0-.936-.186-1.848-.555-2.708C18.211.948 16.705 0 15 0c-1.704 0-3.21.948-3.84 2.415a6.843 6.843 0 00-.555 2.708A1.91 1.91 0 018.697 7.03h-6.88v5.028l1.505.502c1.789.596 3.124 1.937 3.574 3.588.736 2.701-.746 5.504-3.374 6.38l-1.706.568v5.028h5.738c2.418 0 4.857.58 7.053 1.679L15 30l.393-.196a15.859 15.859 0 017.053-1.679h5.738v-5.028l-1.706-.568c-2.628-.876-4.11-3.679-3.375-6.38.45-1.65 1.787-2.992 3.575-3.588zM12.363 24.61h-1.758v-3.515h1.758v3.515zm0-5.273h-1.758V15.82h1.758v3.516zm0-5.273h-1.758v-3.516h1.758v3.515zm3.516 12.304H14.12v-3.515h1.758v3.515zm0-5.273H14.12v-3.516h1.758v3.516zm0-5.274H14.12v-3.515h1.758v3.515zm0-5.273H14.12V7.03h1.758v3.516zm3.516 14.062h-1.758v-3.515h1.758v3.515zm0-5.273h-1.758V15.82h1.758v3.516zm0-5.273h-1.758v-3.516h1.758v3.515z"/><rect x="3.838" y=".424" width="39.993" height="4.035" rx="2.017" transform="rotate(45 3.838 .424)" stroke="#F2F3F5"/></g><defs><clipPath id="clip0"><path fill="#fff" d="M0 0h30v30H0z"/></clipPath></defs></svg>