<svg width="30" height="30" fill="none" xmlns="http://www.w3.org/2000/svg"><g clip-path="url(#clip0)" fill="#000"><path d="M22.59 18.264a6.045 6.045 0 00-.526-1.28 4.334 4.334 0 00-.888-1.063 10.588 10.588 0 00-1.038-.837 9.997 9.997 0 00-1.264-.712c-.535-.262-.96-.457-1.271-.586a55.013 55.013 0 00-1.357-.527 56.302 56.302 0 01-1.172-.46 25.901 25.901 0 01-1.013-.452c-.418-.196-.73-.369-.937-.52a7.358 7.358 0 01-.662-.552 1.885 1.885 0 01-.493-.694 2.216 2.216 0 01-.143-.804c0-.759.335-1.379 1.005-1.858.67-.48 1.535-.72 2.595-.72.468 0 .946.064 1.431.192.485.129.901.274 1.247.436.347.162.673.34.98.535.307.196.524.344.653.444.128.1.21.167.243.201.145.112.295.15.452.117.167-.011.295-.1.385-.268l1.356-2.444c.134-.223.106-.435-.083-.636a5.766 5.766 0 00-.252-.234c-.1-.09-.318-.252-.653-.486a8.079 8.079 0 00-1.063-.628c-.374-.184-.86-.37-1.457-.56a9.285 9.285 0 00-1.85-.386V.536a.522.522 0 00-.15-.385A.522.522 0 0016.28 0h-2.26a.515.515 0 00-.377.159.515.515 0 00-.16.377v3.013c-1.752.335-3.175 1.083-4.268 2.243C8.12 6.953 7.574 8.303 7.574 9.844c0 .457.048.893.142 1.305.095.414.212.785.352 1.114.14.33.338.653.594.971.257.318.5.592.729.82.228.229.527.466.895.712.369.245.684.444.946.594.263.15.611.324 1.046.519.436.195.78.343 1.03.444.251.1.595.24 1.03.418.603.234 1.05.416 1.34.544.29.128.658.307 1.105.536.446.228.772.438.979.627.206.19.393.425.56.703.168.28.252.575.252.888 0 .882-.343 1.562-1.03 2.042-.686.48-1.481.72-2.385.72-.413 0-.826-.044-1.239-.134-1.45-.29-2.807-.988-4.068-2.093l-.034-.033a.415.415 0 00-.401-.15c-.179.022-.307.089-.385.2l-1.725 2.26c-.167.224-.156.453.034.687.056.067.153.168.293.301.14.134.399.343.778.629.38.284.793.552 1.24.803.446.251 1.012.5 1.699.745.686.245 1.397.418 2.134.519v2.93c0 .145.053.27.159.376a.514.514 0 00.377.16h2.26a.52.52 0 00.385-.151c.1-.1.15-.229.15-.386v-2.93c1.775-.29 3.218-1.051 4.328-2.284 1.11-1.234 1.666-2.704 1.666-4.412 0-.558-.073-1.082-.22-1.574z"/><rect x="3.838" y=".424" width="39.993" height="4.035" rx="2.017" transform="rotate(45 3.838 .424)" stroke="#F2F3F5"/></g><defs><clipPath id="clip0"><path fill="#fff" d="M0 0h30v30H0z"/></clipPath></defs></svg>