<svg width="30" height="30" fill="none" xmlns="http://www.w3.org/2000/svg"><path d="M19.668 12.188l-3.095-.028L15 9.494l-1.57 2.666-3.095.028 1.524 2.695-1.524 2.694 3.095.028 1.572 2.667 1.572-2.667 3.095-.028-1.523-2.694 1.523-2.695z" fill="#000"/><path d="M27.09 12.598a13.584 13.584 0 01-.106-8.273l.572-1.87L25.101 0C21.734 1.944 18.367 1.944 15 0 11.634 1.944 8.268 1.944 4.9 0L2.446 2.455l.571 1.87a13.58 13.58 0 01-.105 8.273A12.072 12.072 0 009.32 27.387L15 30l5.682-2.613a12.072 12.072 0 006.407-14.79zm-4.424 6.71l-5.084.046-2.581 4.38-2.582-4.38-5.083-.046 2.502-4.425-2.502-4.425 5.083-.046 2.582-4.38 2.581 4.38 5.084.045-2.502 4.426 2.502 4.425z" fill="#000"/></svg>