<svg width="30" height="30" fill="none" xmlns="http://www.w3.org/2000/svg"><g clip-path="url(#clip0)" fill="#000"><path d="M8.942 17.265l-6.5 6.5a2.945 2.945 0 000 4.16 2.945 2.945 0 004.16 0l6.5-6.5-4.16-4.16zm-4.418 9.457a.879.879 0 110-1.757.879.879 0 010 1.758zm16.05-16.764c-.402-1.204-.51-2.541-.328-3.997L10.213 15.994l6.446 6.446c.343.344.9.344 1.243 0l3.402-3.402v-3.88c0-.042.001-.085.003-.127.077-1.594-.19-3.443-.733-5.073zm5.943 16.945l-.951-1.48a.879.879 0 00-1.479 0l-.951 1.48a2.009 2.009 0 103.455 2.05 2.009 2.009 0 00-.074-2.05zm.87-26.35a.879.879 0 00-1.438-.295l-3.33 3.33-.066.197c-.725 2.173-.83 4.063-.312 5.617.61 1.829.91 3.911.822 5.714v5.47a1.765 1.765 0 103.53 0v-7.634a14.599 14.599 0 001.784-5.945 14.509 14.509 0 00-.99-6.454z"/></g><defs><clipPath id="clip0"><path fill="#fff" d="M0 0h30v30H0z"/></clipPath></defs></svg>