<svg width="30" height="30" fill="none" xmlns="http://www.w3.org/2000/svg"><g clip-path="url(#clip0)" fill="#000"><path d="M26.157 21.62a3.52 3.52 0 00-3.247-4.862 3.512 3.512 0 00-3.038 1.744c-2.815-.986-7.138-1.744-10.145-1.744-3.097 0-5.714 2.28-6.14 5.273h-.95A2.64 2.64 0 000 24.668a2.64 2.64 0 002.637 2.637v-1.758a.88.88 0 010-1.758h.974c.451 2.951 3.221 5.273 6.405 5.273h.59a1.758 1.758 0 000-3.515 2.64 2.64 0 01-2.637-2.637v-1.4h1.758v1.4a.88.88 0 00.878.88 3.516 3.516 0 013.516 3.515 3.48 3.48 0 01-.488 1.758h2.246a1.758 1.758 0 000-3.516H15v-1.758h.879a3.516 3.516 0 013.516 3.516 3.48 3.48 0 01-.488 1.758H30v-.88c0-2.547-1.258-4.988-3.843-6.563zm-2.368 3.927h-1.758v-1.758h1.758v1.758zM26.94 6.424l1.243-1.243L23.94.937 22.697 2.18l1.5 1.5-1.24 1.24-1.249-1.247-4.089 4.09 3.74 3.739 4.089-4.09L24.2 6.164l1.24-1.24 1.5 1.5zM16.7 13.665c1.18.103 2.358-.27 3.348-.989l-3.616-3.615a4.963 4.963 0 00-.97 3.355l-2.777 2.777c.722.078 1.448.173 2.19.296l1.824-1.824z"/><rect x="3.838" y=".424" width="39.993" height="4.035" rx="2.017" transform="rotate(45 3.838 .424)" stroke="#F2F3F5"/></g><defs><clipPath id="clip0"><path fill="#fff" d="M0 0h30v30H0z"/></clipPath></defs></svg>