<svg width="30" height="30" fill="none" xmlns="http://www.w3.org/2000/svg"><g clip-path="url(#clip0)"><path d="M23.75 0H6.344C4.926 0 3.682 1.166 3.682 2.547v25.749c0 .462.128.847.336 1.145A1.3 1.3 0 005.092 30c.405 0 .836-.18 1.234-.52l7.787-6.612c.24-.205.586-.323.946-.323.359 0 .703.118.945.324l7.761 6.61c.4.34.8.521 1.204.521.683 0 1.35-.527 1.35-1.704V2.546C26.318 1.167 25.167 0 23.75 0z" fill="#000"/></g><defs><clipPath id="clip0"><path fill="#fff" d="M0 0h30v30H0z"/></clipPath></defs></svg>