<svg width="30" height="30" fill="none" xmlns="http://www.w3.org/2000/svg"><path d="M19.687 10.61c2.041 0 3.696-2.077 3.696-4.639 0-2.562-1.655-4.638-3.696-4.638-2.042 0-3.697 2.076-3.697 4.638s1.655 4.639 3.697 4.639zm-9.375 0c2.041 0 3.696-2.077 3.696-4.639 0-2.562-1.655-4.638-3.696-4.638-2.042 0-3.697 2.076-3.697 4.638s1.655 4.639 3.697 4.639zm-7.089 4.678a3.223 3.223 0 100-6.446 3.223 3.223 0 000 6.446zm23.554 0a3.223 3.223 0 100-6.446 3.223 3.223 0 000 6.446zM15 13.242c-3.335 0-5.835 1.05-7.644 3.208-1.603 1.912-2.473 4.43-3.315 6.824-1.034 2.934 1.51 5.897 4.583 5.306 2.52-.484 5.983-1.301 10.931-.35 1.907.367 2.084.426 2.603.426 2.708 0 4.743-2.704 3.799-5.382-1.684-4.79-3.479-10.032-10.958-10.032zm2.343 8.608h-1.465v1.465a.879.879 0 01-1.758 0V21.85h-1.465a.879.879 0 010-1.758h1.465v-1.464a.879.879 0 011.758 0v1.464h1.465a.879.879 0 010 1.758z" fill="#000"/></svg>