<svg width="30" height="30" fill="none" xmlns="http://www.w3.org/2000/svg"><path d="M.879 30h15.937a.879.879 0 00.88-.879v-.937c0-.971-.788-1.758-1.759-1.758v-1.051a2.526 2.526 0 00-2.523-2.523H4.281a2.526 2.526 0 00-2.523 2.523v1.05c-.971 0-1.758.788-1.758 1.759v.937A.88.88 0 00.879 30zm10.12-10.644a1.758 1.758 0 102.808-2.116l-5.29-7.019a1.758 1.758 0 10-2.807 2.116l5.289 7.02zm12.637-9.521a1.758 1.758 0 002.807-2.116L21.153.7a1.758 1.758 0 10-2.807 2.116l5.29 7.02zm-3.856 5.106c1.299-.979 2.274-2.194 2.884-3.474L16.51 3.299c-1.399.234-2.836.836-4.135 1.815-1.3.98-2.275 2.195-2.885 3.475l6.155 8.167c1.398-.233 2.835-.836 4.135-1.815zm2.373.229c-.41.417-.84.817-1.315 1.175-.476.358-.979.662-1.492.94l1.146 1.522 2.807-2.116-1.146-1.521zm2.204 2.925l-2.808 2.116 5.29 7.02a1.758 1.758 0 102.807-2.117l-5.29-7.019z" fill="#000"/></svg>