<svg width="30" height="30" fill="none" xmlns="http://www.w3.org/2000/svg"><g clip-path="url(#clip0)" fill="#000"><path d="M29.817 5.183l-5-5a.625.625 0 10-.884.883l.808.809-3.232 3.232-2.058-2.058a1.877 1.877 0 00-2.652 0 1.877 1.877 0 000 2.651l.808.808L5.183 18.933a.625.625 0 00-.183.442c0 .1.02 2.237 1.038 3.703L.183 28.933a.625.625 0 10.884.883l5.854-5.854C8.381 24.977 10.513 25 10.625 25a.625.625 0 00.442-.184l12.424-12.424.808.808c.354.354.826.55 1.326.55a1.876 1.876 0 001.326-3.2l-2.058-2.06 3.232-3.232.808.808a.623.623 0 00.884 0 .625.625 0 000-.883zM11.617 22.5l-1.434-1.434a.625.625 0 11.884-.883l1.433 1.433-.884.884zm3.124-3.125l-.808-.809a.625.625 0 11.884-.883l.808.808-.884.884zm3.125-3.125l-1.433-1.434a.625.625 0 11.884-.883l1.433 1.433-.884.884zm3.686-3.687c-1.788-.076-2.811-.361-3.882-.665-.867-.246-1.757-.498-3.051-.633l3.872-3.873 4.116 4.116-1.055 1.055z"/><rect x="3.838" y=".424" width="39.993" height="4.035" rx="2.017" transform="rotate(45 3.838 .424)" stroke="#F2F3F5"/></g><defs><clipPath id="clip0"><path fill="#fff" d="M0 0h30v30H0z"/></clipPath></defs></svg>