<svg width="30" height="30" fill="none" xmlns="http://www.w3.org/2000/svg"><g clip-path="url(#clip0)" fill="#000"><path d="M2.25 14.25A2.25 2.25 0 000 16.5V18h4.5v-1.5a2.25 2.25 0 00-2.25-2.25z"/><path d="M26.25 5.888a4.867 4.867 0 00-3.75-1.763v2.25A2.628 2.628 0 0125.125 9v12.75a4.88 4.88 0 01-4.875 4.875 4.88 4.88 0 01-4.875-4.875V8.25A7.133 7.133 0 008.25 1.125 7.133 7.133 0 001.125 8.25v3.892a4.498 4.498 0 012.25 0V8.25A4.88 4.88 0 018.25 3.375a4.88 4.88 0 014.875 4.875v13.5a7.133 7.133 0 007.125 7.125 7.133 7.133 0 007.125-7.125V9A2.628 2.628 0 0130 6.375v-2.25a4.867 4.867 0 00-3.75 1.763zM4.5 20.25H0v7.5h4.5v-7.5z"/><rect x="3.838" y=".424" width="39.993" height="4.035" rx="2.017" transform="rotate(45 3.838 .424)" stroke="#F2F3F5"/></g><defs><clipPath id="clip0"><path fill="#fff" d="M0 0h30v30H0z"/></clipPath></defs></svg>