<svg width="83" height="37" fill="none" xmlns="http://www.w3.org/2000/svg"><g clip-path="url(#clip0)"><path d="M83 18.445c0 6.09-4.918 11.066-11.066 11.066-6.09 0-11.067-4.977-11.067-11.066 0-6.09 4.919-11.067 11.008-11.067 6.207 0 11.126 4.977 11.126 11.067z" fill="#FFB600"/><path d="M71.934 7.378C78.024 7.378 83 12.355 83 18.445S78.082 29.51 71.934 29.51c-6.09 0-11.067-4.977-11.067-11.066" fill="#F7981D"/><path d="M71.934 7.378C78.024 7.378 83 12.355 83 18.445S78.082 29.51 71.934 29.51" fill="#FF8500"/><path d="M57.06 7.378c-6.03.058-10.949 4.977-10.949 11.067S51.03 29.51 57.178 29.51c2.87 0 5.446-1.112 7.436-2.869.41-.351.761-.761 1.113-1.17h-2.284a13.5 13.5 0 01-.82-1.114h3.924c.234-.35.468-.76.644-1.17h-5.212a6.977 6.977 0 01-.468-1.172h6.09c.35-1.112.585-2.283.585-3.513 0-.82-.117-1.58-.234-2.342H61.16c.058-.41.175-.761.292-1.171h6.09a6.985 6.985 0 00-.468-1.171H61.92c.175-.41.41-.761.644-1.171h3.923a5.564 5.564 0 00-.878-1.171h-2.167c.352-.41.703-.761 1.113-1.113-1.932-1.815-4.567-2.869-7.437-2.869 0-.117 0-.117-.058-.117z" fill="#FF5050"/><path d="M46.111 18.444c0 6.09 4.919 11.067 11.067 11.067 2.87 0 5.446-1.113 7.436-2.87.41-.35.761-.76 1.113-1.17h-2.284a13.498 13.498 0 01-.82-1.113h3.924c.234-.351.468-.761.644-1.171h-5.212a6.976 6.976 0 01-.468-1.171h6.09c.35-1.113.585-2.284.585-3.513 0-.82-.117-1.581-.234-2.342H61.16c.058-.41.175-.762.292-1.172h6.09a6.985 6.985 0 00-.468-1.17H61.92c.175-.41.41-.762.644-1.172h3.923a5.564 5.564 0 00-.878-1.17h-2.167c.352-.41.703-.762 1.113-1.113-1.932-1.815-4.567-2.87-7.437-2.87h-.058" fill="#E52836"/><path d="M57.178 29.51c2.869 0 5.445-1.112 7.436-2.868.41-.352.761-.761 1.112-1.171h-2.283a13.496 13.496 0 01-.82-1.113h3.923c.234-.351.469-.761.644-1.171h-5.21a6.976 6.976 0 01-.47-1.171h6.09c.352-1.113.586-2.284.586-3.513 0-.82-.117-1.581-.234-2.342h-6.793c.059-.41.176-.762.293-1.172h6.09a6.977 6.977 0 00-.469-1.17h-5.152c.175-.41.41-.762.644-1.172h3.923a5.567 5.567 0 00-.879-1.17h-2.166a9.98 9.98 0 011.112-1.113c-1.932-1.815-4.567-2.87-7.436-2.87h-.059" fill="#CB2026"/><path d="M61.102 21.255l.176-.995c-.059 0-.176.058-.293.058-.41 0-.468-.234-.41-.35l.352-2.05h.644l.175-1.113h-.585l.117-.703h-1.171s-.703 3.865-.703 4.334c0 .702.41.995.937.995.352 0 .644-.117.761-.176zm.41-1.873c0 1.64 1.112 2.05 2.05 2.05.877 0 1.229-.176 1.229-.176l.234-1.113s-.644.293-1.23.293c-1.288 0-1.054-.937-1.054-.937h2.401s.176-.761.176-1.054c0-.761-.41-1.698-1.698-1.698-1.23-.117-2.108 1.171-2.108 2.635zm2.05-1.698c.643 0 .526.761.526.82H62.8c0-.059.117-.82.761-.82zm7.436 3.571l.234-1.288s-.585.293-.995.293c-.82 0-1.171-.644-1.171-1.347 0-1.405.702-2.166 1.522-2.166.586 0 1.054.351 1.054.351l.176-1.23s-.703-.292-1.347-.292c-1.347 0-2.694 1.17-2.694 3.396 0 1.464.703 2.459 2.108 2.459.469 0 1.113-.176 1.113-.176zM54.66 16.629c-.82 0-1.405.234-1.405.234l-.175.995s.527-.234 1.288-.234c.41 0 .761.059.761.41 0 .234-.058.293-.058.293h-.527c-.996 0-2.108.41-2.108 1.757 0 1.053.702 1.288 1.112 1.288.82 0 1.171-.527 1.23-.527l-.059.468h1.054l.469-3.22c0-1.405-1.171-1.464-1.581-1.464zm.235 2.635c0 .175-.117 1.112-.82 1.112-.351 0-.468-.292-.468-.468 0-.293.175-.703 1.054-.703a.91.91 0 00.234.059zm2.46 2.109c.292 0 1.756.058 1.756-1.523 0-1.463-1.405-1.17-1.405-1.756 0-.293.234-.41.644-.41.176 0 .82.058.82.058l.175-1.054s-.41-.117-1.112-.117c-.878 0-1.757.352-1.757 1.523 0 1.346 1.464 1.23 1.464 1.756 0 .352-.41.41-.703.41-.526 0-1.053-.176-1.053-.176l-.176 1.055c.058.117.351.234 1.346.234zm23.361-5.68l-.234 1.581s-.468-.585-1.112-.585c-1.054 0-1.991 1.288-1.991 2.81 0 .937.468 1.933 1.464 1.933.702 0 1.112-.469 1.112-.469l-.058.41h1.17l.88-5.621-1.23-.059zm-.526 3.104c0 .644-.293 1.464-.937 1.464-.41 0-.644-.352-.644-.937 0-.937.41-1.523.936-1.523.41 0 .644.293.644.996zm-31.911 2.517l.702-4.215.117 4.215h.82L51.44 17.1l-.644 4.215h1.23l.937-5.62H51.03l-1.172 3.454-.058-3.455h-1.698l-.937 5.621h1.113zm18.151 0c.352-1.933.41-3.513 1.23-3.22.118-.762.293-1.055.41-1.347h-.234c-.527 0-.937.702-.937.702l.117-.644h-1.112l-.761 4.567h1.288v-.058zm7.26-4.685c-.82 0-1.405.234-1.405.234l-.176.995s.527-.234 1.288-.234c.41 0 .761.059.761.41 0 .234-.058.293-.058.293h-.527c-.996 0-2.108.41-2.108 1.757 0 1.053.703 1.288 1.112 1.288.82 0 1.171-.527 1.23-.527l-.059.468h1.054l.469-3.22c.058-1.405-1.171-1.464-1.581-1.464zm.293 2.635c0 .175-.117 1.112-.82 1.112-.351 0-.468-.292-.468-.468 0-.293.175-.703 1.053-.703.176.059.176.059.235.059zm2.284 2.05c.351-1.933.41-3.513 1.23-3.22.116-.762.292-1.055.41-1.347h-.235c-.527 0-.937.702-.937.702l.117-.644H75.74l-.761 4.567h1.288v-.058z" fill="#fff"/><path d="M59.287 20.436c0 .702.41.995.937.995.41 0 .761-.117.878-.176l.176-.995c-.059 0-.176.058-.293.058-.41 0-.468-.234-.41-.35l.352-2.05h.644l.175-1.113h-.585l.117-.703m.82 3.28c0 1.64.527 2.05 1.464 2.05.878 0 1.23-.176 1.23-.176l.233-1.113s-.644.293-1.23.293c-1.288 0-1.053-.937-1.053-.937h2.4s.176-.761.176-1.054c0-.761-.41-1.698-1.698-1.698-1.23-.117-1.522 1.171-1.522 2.635zm1.464-1.698c.644 0 .76.761.76.82H62.8c0-.059.117-.82.762-.82zm7.436 3.571l.234-1.288s-.585.293-.995.293c-.82 0-1.171-.644-1.171-1.347 0-1.405.703-2.166 1.522-2.166.586 0 1.054.351 1.054.351l.176-1.23s-.703-.292-1.347-.292c-1.347 0-2.108 1.17-2.108 3.396 0 1.464.117 2.459 1.523 2.459.468 0 1.112-.176 1.112-.176zM53.08 17.918s.527-.235 1.288-.235c.41 0 .761.059.761.41 0 .235-.058.293-.058.293h-.527c-.996 0-2.108.41-2.108 1.757 0 1.054.702 1.288 1.112 1.288.82 0 1.171-.527 1.23-.527l-.059.468h1.054l.469-3.22c0-1.347-1.171-1.405-1.64-1.405l-1.522 1.17zm2.4 1.346c0 .176-.702 1.113-1.405 1.113-.351 0-.468-.293-.468-.468 0-.293.175-.703 1.054-.703.175.058.82.058.82.058zm.586 1.992s.352.117 1.347.117c.293 0 1.757.058 1.757-1.523 0-1.463-1.406-1.17-1.406-1.756 0-.293.235-.41.645-.41.175 0 .82.058.82.058l.175-1.054s-.41-.117-1.113-.117c-.878 0-1.17.352-1.17 1.523 0 1.346.878 1.23.878 1.756 0 .352-.41.41-.703.41m23.187-2.987s-.468-.585-1.112-.585c-1.054 0-1.406 1.288-1.406 2.81 0 .937-.117 1.933.879 1.933.702 0 1.112-.469 1.112-.469l-.059.41h1.171l.879-5.621-1.464 1.522zm-.059 1.523c0 .644-.527 1.464-1.17 1.464-.41 0-.645-.352-.645-.937 0-.937.41-1.523.937-1.523.41 0 .878.293.878.996zm-32.145 2.518l.702-4.215.117 4.215h.82L51.44 17.1l-.644 4.215h1.23l.937-5.62h-1.464l-1.64 3.454-.058-3.455h-.644l-1.991 5.621h1.113zm16.921 0h1.229c.351-1.933.41-3.513 1.23-3.22.117-.762.292-1.055.41-1.347h-.235c-.527 0-.937.702-.937.702l.117-.644m5.095 1.113s.527-.235 1.288-.235c.41 0 .761.059.761.41 0 .235-.058.293-.058.293h-.527c-.996 0-2.108.41-2.108 1.757 0 1.054.703 1.288 1.112 1.288.82 0 1.171-.527 1.23-.527l-.059.468h1.054l.469-3.22c0-1.347-1.171-1.405-1.64-1.405l-1.522 1.17zm2.4 1.346c0 .176-.702 1.113-1.405 1.113-.351 0-.468-.293-.468-.468 0-.293.176-.703 1.054-.703.234.058.82.058.82.058zm.528 2.05h1.23c.351-1.933.41-3.513 1.23-3.22.117-.762.292-1.055.41-1.347h-.235c-.527 0-.937.702-.937.702l.117-.644" fill="#DCE5E5"/></g><g clip-path="url(#clip1)"><path d="M13.525 23.743l1.874-10.54h2.928l-1.815 10.54h-2.987z" fill="#3C58BF"/><path d="M13.525 23.743l2.401-10.54h2.4l-1.814 10.54h-2.987z" fill="#4B5BBE"/><path d="M27.111 13.322c-.585-.235-1.522-.469-2.693-.469-2.928 0-5.036 1.464-5.036 3.572 0 1.58 1.464 2.4 2.635 2.927 1.171.527 1.522.879 1.522 1.347 0 .703-.937 1.054-1.756 1.054-1.171 0-1.816-.175-2.81-.585l-.41-.176-.41 2.4c.702.294 1.99.586 3.337.586 3.103 0 5.153-1.464 5.153-3.689 0-1.23-.762-2.166-2.518-2.927-1.054-.527-1.698-.82-1.698-1.347 0-.469.527-.937 1.698-.937.995 0 1.698.176 2.225.41l.293.117.468-2.284z" fill="#3C58BF"/><path d="M27.111 13.322c-.585-.235-1.522-.469-2.693-.469-2.928 0-4.509 1.464-4.509 3.572 0 1.58.937 2.4 2.108 2.927 1.171.527 1.522.879 1.522 1.347 0 .703-.937 1.054-1.756 1.054-1.171 0-1.816-.175-2.81-.585l-.41-.176-.41 2.4c.702.294 1.99.586 3.337.586 3.103 0 5.153-1.464 5.153-3.689 0-1.23-.762-2.166-2.518-2.927-1.054-.527-1.698-.82-1.698-1.347 0-.469.527-.937 1.698-.937.995 0 1.698.176 2.225.41l.293.117.468-2.284z" fill="#4B5BBE"/><path d="M32.144 13.203c-.702 0-1.23.059-1.522.761l-4.392 9.779h3.162l.586-1.757h3.747l.352 1.757h2.81l-2.459-10.54h-2.284zm-1.346 7.027c.175-.527 1.17-3.104 1.17-3.104s.235-.644.41-1.054l.176.996s.586 2.635.703 3.22h-2.46v-.058z" fill="#3C58BF"/><path d="M32.847 13.203c-.703 0-1.23.059-1.522.761l-5.095 9.779h3.162l.586-1.757h3.747l.352 1.757h2.81l-2.459-10.54h-1.581zm-2.05 7.027c.235-.586 1.172-3.104 1.172-3.104s.234-.644.41-1.054l.175.996s.586 2.635.703 3.22h-2.46v-.058z" fill="#4B5BBE"/><path d="M8.14 20.581l-.293-1.522c-.527-1.757-2.225-3.689-4.099-4.626l2.635 9.369h3.162l4.743-10.54h-3.162l-2.986 7.32z" fill="#3C58BF"/><path d="M8.14 20.581l-.293-1.522c-.527-1.757-2.225-3.689-4.099-4.626l2.635 9.369h3.162l4.743-10.54H11.71l-3.571 7.32z" fill="#4B5BBE"/><path d="M0 13.203l.527.117c3.747.878 6.324 3.104 7.32 5.738l-1.055-4.977c-.175-.702-.702-.878-1.346-.878H0z" fill="#FFBC00"/><path d="M0 13.203c3.747.878 6.85 3.162 7.846 5.797l-.995-4.157a1.43 1.43 0 00-1.405-1.113L0 13.203z" fill="#F7981D"/><path d="M0 13.203c3.747.878 6.85 3.162 7.846 5.797l-.702-2.284c-.176-.702-.41-1.405-1.23-1.698L0 13.203z" fill="#ED7C00"/><path d="M11.067 20.23l-1.99-1.99-.937 2.224L7.905 19c-.527-1.756-2.225-3.689-4.098-4.626l2.635 9.37h3.161l1.464-3.514zm5.445 3.513l-2.518-2.576-.469 2.576h2.987zm6.735-3.631c.234.235.35.41.292.644 0 .703-.937 1.054-1.756 1.054-1.171 0-1.816-.175-2.81-.585l-.41-.176-.41 2.4c.702.294 1.99.586 3.337.586 1.874 0 3.396-.527 4.274-1.463l-2.517-2.46zm3.396 3.631h2.752l.585-1.757h3.748l.35 1.757h2.811l-.995-4.275-3.513-3.396.175.937s.586 2.635.703 3.22H30.8a290.54 290.54 0 001.172-3.103s.234-.644.41-1.054" fill="#7D8CC6"/></g><defs><clipPath id="clip0"><path fill="#fff" transform="translate(46.111)" d="M0 0h36.889v36.889H0z"/></clipPath><clipPath id="clip1"><path fill="#fff" d="M0 0h36.889v36.889H0z"/></clipPath></defs></svg>