<svg width="32" height="32" fill="none" xmlns="http://www.w3.org/2000/svg"><path d="M28.806 3H9.705a1.192 1.192 0 00-1.193 1.191V9.5l11.069 3.25L30 9.5V4.191A1.191 1.191 0 0028.806 3z" fill="#41A5EE"/><path d="M30 9.5H8.512V16l11.069 1.95L30 16V9.5z" fill="#2B7CD3"/><path d="M8.512 16v6.5l10.418 1.3L30 22.5V16H8.512z" fill="#185ABD"/><path d="M9.705 29h19.1A1.192 1.192 0 0030 27.809V22.5H8.512v5.309A1.192 1.192 0 009.705 29z" fill="#103F91"/><path opacity=".1" d="M16.434 8.2H8.512v16.25h7.922a1.2 1.2 0 001.194-1.191V9.39a1.2 1.2 0 00-1.194-1.19z" fill="#000"/><path opacity=".2" d="M15.783 8.85H8.512V25.1h7.27a1.2 1.2 0 001.195-1.191V10.04a1.2 1.2 0 00-1.194-1.191z" fill="#000"/><path opacity=".2" d="M15.783 8.85H8.512V23.8h7.27a1.2 1.2 0 001.195-1.191V10.04a1.2 1.2 0 00-1.194-1.191z" fill="#000"/><path opacity=".2" d="M15.132 8.85h-6.62V23.8h6.62a1.2 1.2 0 001.194-1.191V10.04a1.2 1.2 0 00-1.194-1.191z" fill="#000"/><path d="M3.194 8.85h11.938a1.193 1.193 0 011.194 1.19v11.92a1.193 1.193 0 01-1.194 1.19H3.194A1.194 1.194 0 012 21.96V10.04a1.192 1.192 0 011.194-1.19z" fill="url(#paint0_linear)"/><path d="M6.9 17.988c.022.184.038.344.045.48h.028a4.8 4.8 0 01.065-.47c.033-.182.062-.337.09-.464l1.254-5.407h1.625l1.3 5.326c.075.33.13.663.162 1h.022c.023-.328.068-.654.135-.975l1.039-5.358h1.477l-1.824 7.748H10.59l-1.238-5.126a12.316 12.316 0 01-.206-1.098h-.02c-.015.126-.043.313-.085.56-.042.25-.075.433-.1.553L7.78 19.87H6.023L4.19 12.127h1.5l1.131 5.418c.034.146.06.294.08.443z" fill="#fff"/><defs><linearGradient id="paint0_linear" x1="4.494" y1="7.914" x2="13.832" y2="24.086" gradientUnits="userSpaceOnUse"><stop stop-color="#2368C4"/><stop offset=".5" stop-color="#1A5DBE"/><stop offset="1" stop-color="#1146AC"/></linearGradient></defs></svg>