<svg width="20" height="16" viewBox="0 0 20 16" fill="none" xmlns="http://www.w3.org/2000/svg">
<path d="M16.292 1.45849C16.6168 1.14928 17.049 0.978346 17.4974 0.981739C17.9458 0.985132 18.3754 1.16259 18.6954 1.47667C19.0155 1.79075 19.201 2.21688 19.2129 2.66515C19.2247 3.11342 19.062 3.54877 18.759 3.87932L9.5598 15.384C9.40162 15.5544 9.2107 15.6911 8.99847 15.7861C8.78624 15.881 8.55705 15.9321 8.3246 15.9364C8.09216 15.9407 7.86123 15.8981 7.64563 15.8111C7.43003 15.7241 7.23418 15.5946 7.0698 15.4302L0.969301 9.32965C0.799412 9.17135 0.663148 8.98045 0.568639 8.76834C0.47413 8.55623 0.423311 8.32726 0.419214 8.09508C0.415118 7.8629 0.457828 7.63228 0.544796 7.41697C0.631764 7.20166 0.761208 7.00607 0.925407 6.84187C1.08961 6.67767 1.28519 6.54823 1.50051 6.46126C1.71582 6.37429 1.94644 6.33158 2.17862 6.33568C2.41079 6.33977 2.63977 6.39059 2.85188 6.4851C3.06398 6.57961 3.25489 6.71587 3.41319 6.88576L8.24102 11.7113L16.2482 1.50921C16.2626 1.49146 16.278 1.47452 16.2943 1.45849H16.292Z" fill="white"/>
</svg>
