<svg width="30" height="30" viewBox="0 0 30 30" fill="none" xmlns="http://www.w3.org/2000/svg">
<path d="M27.5623 4.99992C27.5623 7.24365 25.7437 9.06258 23.4999 9.06258C21.2562 9.06258 19.4375 7.24365 19.4375 4.99992C19.4375 2.75642 21.2562 0.9375 23.4999 0.9375C25.7437 0.9375 27.5623 2.75642 27.5623 4.99992Z" fill="black"/>
<path d="M23.4999 10.0001C20.7424 10.0001 18.5 7.75749 18.5 4.99992C18.5 2.24258 20.7424 0 23.4999 0C26.2575 0 28.4998 2.24258 28.4998 4.99992C28.4998 7.75749 26.2575 10.0001 23.4999 10.0001ZM23.4999 1.875C21.7762 1.875 20.375 3.27759 20.375 4.99992C20.375 6.72249 21.7762 8.12508 23.4999 8.12508C25.2236 8.12508 26.6248 6.72249 26.6248 4.99992C26.6248 3.27759 25.2236 1.875 23.4999 1.875Z" fill="black"/>
<path d="M27.5623 25.0002C27.5623 27.2437 25.7437 29.0626 23.4999 29.0626C21.2562 29.0626 19.4375 27.2437 19.4375 25.0002C19.4375 22.7564 21.2562 20.9375 23.4999 20.9375C25.7437 20.9375 27.5623 22.7564 27.5623 25.0002Z" fill="black"/>
<path d="M23.4999 29.9991C20.7424 29.9991 18.5 27.7565 18.5 24.9992C18.5 22.2416 20.7424 19.999 23.4999 19.999C26.2575 19.999 28.4998 22.2416 28.4998 24.9992C28.4998 27.7565 26.2575 29.9991 23.4999 29.9991ZM23.4999 21.874C21.7762 21.874 20.375 23.2766 20.375 24.9992C20.375 26.7215 21.7762 28.1241 23.4999 28.1241C25.2236 28.1241 26.6248 26.7215 26.6248 24.9992C26.6248 23.2766 25.2236 21.874 23.4999 21.874Z" fill="black"/>
<path d="M10.0626 14.9999C10.0626 17.2436 8.24365 19.0623 5.99992 19.0623C3.75642 19.0623 1.9375 17.2436 1.9375 14.9999C1.9375 12.7562 3.75642 10.9375 5.99992 10.9375C8.24365 10.9375 10.0626 12.7562 10.0626 14.9999Z" fill="black"/>
<path d="M5.99992 19.9998C3.24258 19.9998 1 17.7575 1 14.9999C1 12.2424 3.24258 10 5.99992 10C8.75749 10 11.0001 12.2424 11.0001 14.9999C11.0001 17.7575 8.75749 19.9998 5.99992 19.9998ZM5.99992 11.875C4.27621 11.875 2.875 13.2774 2.875 14.9999C2.875 16.7225 4.27621 18.1248 5.99992 18.1248C7.72386 18.1248 9.12508 16.7225 9.12508 14.9999C9.12508 13.2774 7.72386 11.875 5.99992 11.875Z" fill="black"/>
<path d="M8.95047 14.4002C8.51536 14.4002 8.09285 14.1739 7.86282 13.769C7.52156 13.1702 7.73167 12.4064 8.33042 12.0638L19.929 5.4514C20.5278 5.10762 21.2915 5.31773 21.6342 5.91878C21.9754 6.51753 21.7653 7.28131 21.1666 7.62394L9.56776 14.2363C9.37275 14.3476 9.16035 14.4002 8.95047 14.4002Z" fill="black"/>
<path d="M20.5485 24.7125C20.3384 24.7125 20.126 24.6598 19.931 24.5486L8.33221 17.9362C7.73345 17.5949 7.52357 16.8312 7.86483 16.231C8.20472 15.6311 8.96964 15.4199 9.56977 15.7637L21.1686 22.3761C21.7673 22.7173 21.9772 23.4811 21.636 24.0812C21.4048 24.4861 20.9823 24.7125 20.5485 24.7125Z" fill="black"/>
</svg>
