<svg width="16" height="16" viewBox="0 0 16 16" fill="none" xmlns="http://www.w3.org/2000/svg">
<path d="M8 1C9.5913 1 11.1174 1.63214 12.2426 2.75736C13.3679 3.88258 14 5.4087 14 7C14 9.867 12.065 12.506 8.268 14.922C8.18787 14.9729 8.09492 14.9999 8 14.9999C7.90508 14.9999 7.81213 14.9729 7.732 14.922C3.935 12.506 2 9.867 2 7C2 5.4087 2.63214 3.88258 3.75736 2.75736C4.88258 1.63214 6.4087 1 8 1ZM8 5C7.46957 5 6.96086 5.21071 6.58579 5.58579C6.21071 5.96086 6 6.46957 6 7C6 7.53043 6.21071 8.03914 6.58579 8.41421C6.96086 8.78929 7.46957 9 8 9C8.53043 9 9.03914 8.78929 9.41421 8.41421C9.78929 8.03914 10 7.53043 10 7C10 6.46957 9.78929 5.96086 9.41421 5.58579C9.03914 5.21071 8.53043 5 8 5Z" fill="#C8C8C8"/>
</svg>
