<svg width="30" height="30" viewBox="0 0 30 30" fill="none" xmlns="http://www.w3.org/2000/svg">
<g clip-path="url(#clip0)">
<path d="M23.7504 0H6.344C4.92638 0 3.68164 1.16621 3.68164 2.54663V28.2959C3.68164 28.758 3.81025 29.1431 4.01751 29.4406C4.26538 29.7963 4.6645 30.0001 5.09247 30C5.4971 30 5.92791 29.8199 6.32575 29.4801L14.1133 22.868C14.3539 22.6626 14.6993 22.5449 15.0586 22.5449C15.4176 22.5449 15.7624 22.6626 16.0036 22.8686L23.7652 29.4791C24.1645 29.8199 24.5656 30.0001 24.9695 30.0001C25.6525 30.0001 26.3183 29.4733 26.3183 28.296V2.54663C26.3183 1.16621 25.168 0 23.7504 0Z" fill="black"/>
</g>
<defs>
<clipPath id="clip0">
<rect width="30" height="30" fill="white"/>
</clipPath>
</defs>
</svg>
