<svg width="30" height="30" viewBox="0 0 30 30" fill="none" xmlns="http://www.w3.org/2000/svg">
<g clip-path="url(#clip0)">
<path d="M26.1571 21.6201C26.3331 21.1952 26.4258 20.7378 26.4258 20.2734C26.4258 18.3345 24.8491 16.7578 22.9102 16.7578C21.633 16.7578 20.4889 17.4419 19.8718 18.5019C17.0573 17.5157 12.7341 16.7578 9.72656 16.7578C6.62971 16.7578 4.01268 19.0389 3.58699 22.0312H2.63672C1.18277 22.0312 0 23.214 0 24.668C0 26.1219 1.18277 27.3047 2.63672 27.3047V25.5469C2.1518 25.5469 1.75781 25.1529 1.75781 24.668C1.75781 24.183 2.1518 23.7891 2.63672 23.7891H3.61131C4.06236 26.7403 6.83203 29.0625 10.0158 29.0625H10.6055C11.5763 29.0625 12.3633 28.2754 12.3633 27.3047C12.3633 26.3338 11.5763 25.5469 10.6055 25.5469C9.15152 25.5469 7.96875 24.3641 7.96875 22.9102V21.5094H9.72656V22.9102C9.72656 23.3951 10.1205 23.7891 10.6055 23.7891C12.5471 23.7891 14.1211 25.363 14.1211 27.3047C14.1211 27.9483 13.9355 28.5437 13.6335 29.0625C13.8105 29.0625 16.0559 29.0625 15.8789 29.0625C16.8497 29.0625 17.6367 28.2754 17.6367 27.3047C17.6367 26.3338 16.8497 25.5469 15.8789 25.5469H15V23.7891H15.8789C17.8205 23.7891 19.3945 25.363 19.3945 27.3047C19.3945 27.9483 19.2089 28.5437 18.9069 29.0625H30V28.1836C30 25.6356 28.7425 23.195 26.1571 21.6201ZM23.7891 25.5469H22.0312V23.7891H23.7891V25.5469Z" fill="black"/>
<path d="M26.9405 6.42381L28.1833 5.18098L23.9398 0.9375L22.697 2.18033L24.1972 3.68057L22.9564 4.92088L21.7082 3.67295L17.6191 7.76268L21.3581 11.5015L25.4479 7.4117L24.1995 6.16354L25.4401 4.9234L26.9405 6.42381Z" fill="black"/>
<path d="M16.6994 13.6651C17.8798 13.7683 19.0579 13.3954 20.0477 12.6761L16.4322 9.06055C15.4631 10.3858 15.4038 11.7024 15.4626 12.4162L12.6855 15.1934C13.4072 15.2712 14.1332 15.3659 14.8758 15.4888L16.6994 13.6651Z" fill="black"/>
<rect x="3.83789" y="0.423904" width="39.9934" height="4.03495" rx="2.01747" transform="rotate(45 3.83789 0.423904)" fill="black" stroke="#F2F3F5"/>
</g>
<defs>
<clipPath id="clip0">
<rect width="30" height="30" fill="white"/>
</clipPath>
</defs>
</svg>
