<svg width="30" height="30" viewBox="0 0 30 30" fill="none" xmlns="http://www.w3.org/2000/svg">
<g clip-path="url(#clip0)">
<path d="M29.1211 8.53027H25.293V20.59C25.293 21.4144 26.323 21.7831 26.8501 21.1492C27.0561 20.9015 27.2679 20.6309 27.4796 20.3382C29.1285 18.0594 30 15.4992 30 12.9346V9.40918C30 8.92379 29.6065 8.53027 29.1211 8.53027Z" fill="black"/>
<path d="M6.46484 8.53027H9.41404V14.9951H6.46484V8.53027Z" fill="black"/>
<path d="M11.1719 8.53027H14.1211V14.9951H11.1719V8.53027Z" fill="black"/>
<path d="M15.8789 8.53027H18.8281V14.9951H15.8789V8.53027Z" fill="black"/>
<path d="M20.5859 8.53027H23.5351V14.9951H20.5859V8.53027Z" fill="black"/>
<path d="M4.70701 8.53027H0.878906C0.393516 8.53027 0 8.92379 0 9.40918V12.9346C0 15.4993 0.871523 18.0594 2.52035 20.3382C2.73211 20.6309 2.94398 20.9015 3.14988 21.1492C3.67693 21.7831 4.70701 21.4145 4.70701 20.59V8.53027Z" fill="black"/>
<rect x="3.83789" y="0.423904" width="39.9934" height="4.03495" rx="2.01747" transform="rotate(45 3.83789 0.423904)" fill="black" stroke="#F2F3F5"/>
</g>
<defs>
<clipPath id="clip0">
<rect width="30" height="30" fill="white"/>
</clipPath>
</defs>
</svg>
