<svg width="83" height="37" viewBox="0 0 83 37" fill="none" xmlns="http://www.w3.org/2000/svg">
<g clip-path="url(#clip0)">
<path d="M83.0005 18.4446C83.0005 24.5342 78.082 29.5113 71.9339 29.5113C65.8443 29.5113 60.8672 24.5342 60.8672 18.4446C60.8672 12.355 65.7857 7.37793 71.8753 7.37793C78.082 7.37793 83.0005 12.355 83.0005 18.4446Z" fill="#FFB600"/>
<path d="M71.9339 7.37793C78.0234 7.37793 83.0005 12.355 83.0005 18.4446C83.0005 24.5342 78.082 29.5113 71.9339 29.5113C65.8443 29.5113 60.8672 24.5342 60.8672 18.4446" fill="#F7981D"/>
<path d="M71.9336 7.37793C78.0232 7.37793 83.0003 12.355 83.0003 18.4446C83.0003 24.5342 78.0817 29.5113 71.9336 29.5113" fill="#FF8500"/>
<path d="M57.0609 7.37793C51.0298 7.43648 46.1113 12.355 46.1113 18.4446C46.1113 24.5342 51.0298 29.5113 57.178 29.5113C60.0471 29.5113 62.6235 28.3987 64.6143 26.6421C65.0242 26.2908 65.3755 25.8809 65.7268 25.4711H63.4433C63.1505 25.1197 62.8577 24.7099 62.6235 24.3585H66.5466C66.7808 24.0072 67.015 23.5973 67.1907 23.1875H61.9794C61.8037 22.8361 61.6281 22.4263 61.511 22.0164H67.6006C67.9519 20.9039 68.1861 19.7328 68.1861 18.5031C68.1861 17.6834 68.069 16.9222 67.9519 16.161H61.1597C61.2182 15.7511 61.3353 15.3998 61.4524 14.9899H67.542C67.4249 14.58 67.2492 14.1702 67.0736 13.8188H61.9209C62.0965 13.409 62.3307 13.0576 62.5649 12.6478H66.488C66.2538 12.2379 65.9611 11.828 65.6097 11.4767H63.4433C63.7946 11.0668 64.1459 10.7155 64.5558 10.3642C62.6235 8.54901 59.9886 7.49504 57.1194 7.49504C57.1194 7.37793 57.1194 7.37793 57.0609 7.37793Z" fill="#FF5050"/>
<path d="M46.1113 18.4442C46.1113 24.5338 51.0298 29.5109 57.178 29.5109C60.0471 29.5109 62.6235 28.3983 64.6143 26.6417C65.0242 26.2904 65.3755 25.8805 65.7268 25.4706H63.4433C63.1505 25.1193 62.8577 24.7094 62.6235 24.3581H66.5466C66.7808 24.0068 67.015 23.5969 67.1907 23.187H61.9794C61.8037 22.8357 61.6281 22.4258 61.511 22.016H67.6006C67.9519 20.9034 68.1861 19.7324 68.1861 18.5027C68.1861 17.683 68.069 16.9218 67.9519 16.1606H61.1597C61.2182 15.7507 61.3353 15.3994 61.4524 14.9895H67.542C67.4249 14.5796 67.2492 14.1698 67.0736 13.8184H61.9209C62.0965 13.4086 62.3307 13.0572 62.5649 12.6474H66.488C66.2538 12.2375 65.9611 11.8276 65.6097 11.4763H63.4433C63.7946 11.0664 64.1459 10.7151 64.5558 10.3638C62.6235 8.5486 59.9886 7.49463 57.1194 7.49463H57.0609" fill="#E52836"/>
<path d="M57.1777 29.5109C60.0468 29.5109 62.6232 28.3983 64.614 26.6417C65.0239 26.2904 65.3752 25.8805 65.7265 25.4706H63.4429C63.1501 25.1193 62.8574 24.7094 62.6232 24.3581H66.5463C66.7805 24.0068 67.0147 23.5969 67.1904 23.187H61.9791C61.8034 22.8357 61.6277 22.4258 61.5106 22.016H67.6002C67.9516 20.9034 68.1858 19.7324 68.1858 18.5027C68.1858 17.683 68.0687 16.9218 67.9516 16.1606H61.1593C61.2179 15.7507 61.335 15.3994 61.4521 14.9895H67.5417C67.4246 14.5796 67.2489 14.1698 67.0732 13.8184H61.9205C62.0962 13.4086 62.3304 13.0572 62.5646 12.6474H66.4877C66.2535 12.2375 65.9607 11.8276 65.6094 11.4763H63.4429C63.7942 11.0664 64.1456 10.7151 64.5554 10.3638C62.6232 8.5486 59.9882 7.49463 57.1191 7.49463H57.0605" fill="#CB2026"/>
<path d="M61.1024 21.2553L61.278 20.2599C61.2195 20.2599 61.1024 20.3184 60.9852 20.3184C60.5754 20.3184 60.5168 20.0842 60.5754 19.9671L60.9267 17.9177H61.5708L61.7465 16.8052H61.1609L61.278 16.1025H60.1069C60.1069 16.1025 59.4043 19.9671 59.4043 20.4355C59.4043 21.1382 59.8142 21.4309 60.3412 21.4309C60.6925 21.4309 60.9853 21.3138 61.1024 21.2553Z" fill="white"/>
<path d="M61.5117 19.3821C61.5117 21.0216 62.6242 21.4315 63.5611 21.4315C64.4394 21.4315 64.7907 21.2558 64.7907 21.2558L65.0249 20.1433C65.0249 20.1433 64.3809 20.4361 63.7953 20.4361C62.5071 20.4361 62.7413 19.4992 62.7413 19.4992H65.1421C65.1421 19.4992 65.3177 18.738 65.3177 18.4452C65.3177 17.684 64.9078 16.7472 63.6197 16.7472C62.39 16.63 61.5117 17.9182 61.5117 19.3821ZM63.5611 17.684C64.2052 17.684 64.0881 18.4452 64.0881 18.5038H62.7999C62.7999 18.4452 62.917 17.684 63.5611 17.684Z" fill="white"/>
<path d="M70.9978 21.2554L71.232 19.9672C71.232 19.9672 70.6465 20.26 70.2366 20.26C69.4169 20.26 69.0655 19.6159 69.0655 18.9132C69.0655 17.508 69.7682 16.7468 70.5879 16.7468C71.1735 16.7468 71.6419 17.0981 71.6419 17.0981L71.8176 15.8685C71.8176 15.8685 71.1149 15.5757 70.4708 15.5757C69.1241 15.5757 67.7773 16.7468 67.7773 18.9718C67.7773 20.4356 68.48 21.431 69.8853 21.431C70.3537 21.431 70.9978 21.2554 70.9978 21.2554Z" fill="white"/>
<path d="M54.6606 16.6289C53.8408 16.6289 53.2553 16.8631 53.2553 16.8631L53.0796 17.8585C53.0796 17.8585 53.6066 17.6243 54.3678 17.6243C54.7777 17.6243 55.129 17.6829 55.129 18.0342C55.129 18.2684 55.0705 18.327 55.0705 18.327C55.0705 18.327 54.7192 18.327 54.5435 18.327C53.5481 18.327 52.4355 18.7368 52.4355 20.0836C52.4355 21.1375 53.1382 21.3717 53.5481 21.3717C54.3678 21.3717 54.7192 20.8448 54.7777 20.8448L54.7192 21.3132H55.7731L56.2416 18.0927C56.2416 16.6875 55.0705 16.6289 54.6606 16.6289ZM54.8948 19.2638C54.8948 19.4395 54.7777 20.3763 54.0751 20.3763C53.7237 20.3763 53.6066 20.0836 53.6066 19.9079C53.6066 19.6151 53.7823 19.2053 54.6606 19.2053C54.8363 19.2638 54.8948 19.2638 54.8948 19.2638Z" fill="white"/>
<path d="M57.3545 21.3727C57.6473 21.3727 59.1112 21.4312 59.1112 19.8503C59.1112 18.3865 57.7059 18.6792 57.7059 18.0937C57.7059 17.8009 57.9401 17.6838 58.35 17.6838C58.5256 17.6838 59.1697 17.7424 59.1697 17.7424L59.3454 16.6884C59.3454 16.6884 58.9355 16.5713 58.2329 16.5713C57.3545 16.5713 56.4762 16.9226 56.4762 18.0937C56.4762 19.4404 57.9401 19.3233 57.9401 19.8503C57.9401 20.2016 57.5302 20.2602 57.2374 20.2602C56.7105 20.2602 56.1835 20.0845 56.1835 20.0845L56.0078 21.1385C56.0664 21.2556 56.3591 21.3727 57.3545 21.3727Z" fill="white"/>
<path d="M80.7165 15.6934L80.4823 17.2743C80.4823 17.2743 80.0138 16.6888 79.3697 16.6888C78.3158 16.6888 77.3789 17.977 77.3789 19.4994C77.3789 20.4362 77.8473 21.4316 78.8427 21.4316C79.5454 21.4316 79.9553 20.9632 79.9553 20.9632L79.8967 21.3731H81.0678L81.9461 15.7519L80.7165 15.6934ZM80.1895 18.7967C80.1895 19.4408 79.8967 20.2606 79.2526 20.2606C78.8427 20.2606 78.6085 19.9092 78.6085 19.3237C78.6085 18.3868 79.0184 17.8013 79.5454 17.8013C79.9553 17.8013 80.1895 18.0941 80.1895 18.7967Z" fill="white"/>
<path d="M48.2785 21.3145L48.9812 17.0987L49.0983 21.3145H49.918L51.4404 17.0987L50.7964 21.3145H52.026L52.9628 15.6934H51.0306L49.8595 19.148L49.8009 15.6934H48.1029L47.166 21.3145H48.2785Z" fill="white"/>
<path d="M66.4308 21.3138C66.7821 19.3815 66.8406 17.8006 67.6604 18.0933C67.7775 17.3321 67.9532 17.0394 68.0703 16.7466C68.0703 16.7466 68.0117 16.7466 67.8361 16.7466C67.3091 16.7466 66.8992 17.4492 66.8992 17.4492L67.0163 16.8051H65.9038L65.1426 21.3723H66.4308V21.3138Z" fill="white"/>
<path d="M73.6899 16.6289C72.8701 16.6289 72.2846 16.8631 72.2846 16.8631L72.1089 17.8585C72.1089 17.8585 72.6359 17.6243 73.3971 17.6243C73.807 17.6243 74.1583 17.6829 74.1583 18.0342C74.1583 18.2684 74.0998 18.327 74.0998 18.327C74.0998 18.327 73.7484 18.327 73.5728 18.327C72.5774 18.327 71.4648 18.7368 71.4648 20.0836C71.4648 21.1375 72.1675 21.3717 72.5774 21.3717C73.3971 21.3717 73.7484 20.8448 73.807 20.8448L73.7484 21.3132H74.8024L75.2708 18.0927C75.3294 16.6875 74.0998 16.6289 73.6899 16.6289ZM73.9827 19.2638C73.9827 19.4395 73.8656 20.3763 73.1629 20.3763C72.8116 20.3763 72.6945 20.0836 72.6945 19.9079C72.6945 19.6151 72.8701 19.2053 73.7484 19.2053C73.9241 19.2638 73.9241 19.2638 73.9827 19.2638Z" fill="white"/>
<path d="M76.2667 21.3138C76.618 19.3815 76.6766 17.8006 77.4963 18.0933C77.6134 17.3321 77.7891 17.0394 77.9062 16.7466C77.9062 16.7466 77.8477 16.7466 77.672 16.7466C77.145 16.7466 76.7351 17.4492 76.7351 17.4492L76.8522 16.8051H75.7397L74.9785 21.3723H76.2667V21.3138Z" fill="white"/>
<path d="M59.2871 20.4355C59.2871 21.1382 59.697 21.4309 60.224 21.4309C60.6338 21.4309 60.9852 21.3138 61.1023 21.2553L61.2779 20.2599C61.2194 20.2599 61.1023 20.3184 60.9852 20.3184C60.5753 20.3184 60.5167 20.0842 60.5753 19.9671L60.9266 17.9177H61.5707L61.7464 16.8052H61.1608L61.2779 16.1025" fill="#DCE5E5"/>
<path d="M62.0977 19.3821C62.0977 21.0216 62.6246 21.4315 63.5615 21.4315C64.4398 21.4315 64.7911 21.2558 64.7911 21.2558L65.0253 20.1433C65.0253 20.1433 64.3813 20.4361 63.7957 20.4361C62.5075 20.4361 62.7417 19.4992 62.7417 19.4992H65.1425C65.1425 19.4992 65.3181 18.738 65.3181 18.4452C65.3181 17.684 64.9082 16.7472 63.6201 16.7472C62.3904 16.63 62.0977 17.9182 62.0977 19.3821ZM63.5615 17.684C64.2056 17.684 64.3227 18.4452 64.3227 18.5038H62.8003C62.8003 18.4452 62.9174 17.684 63.5615 17.684Z" fill="#DCE5E5"/>
<path d="M70.9982 21.2554L71.2324 19.9672C71.2324 19.9672 70.6469 20.26 70.237 20.26C69.4172 20.26 69.0659 19.6159 69.0659 18.9132C69.0659 17.508 69.7686 16.7468 70.5883 16.7468C71.1739 16.7468 71.6423 17.0981 71.6423 17.0981L71.818 15.8685C71.818 15.8685 71.1153 15.5757 70.4712 15.5757C69.1245 15.5757 68.3633 16.7468 68.3633 18.9718C68.3633 20.4356 68.4804 21.431 69.8857 21.431C70.3541 21.431 70.9982 21.2554 70.9982 21.2554Z" fill="#DCE5E5"/>
<path d="M53.0796 17.9177C53.0796 17.9177 53.6066 17.6834 54.3678 17.6834C54.7777 17.6834 55.129 17.742 55.129 18.0933C55.129 18.3275 55.0705 18.3861 55.0705 18.3861C55.0705 18.3861 54.7192 18.3861 54.5435 18.3861C53.5481 18.3861 52.4355 18.796 52.4355 20.1427C52.4355 21.1967 53.1382 21.4309 53.5481 21.4309C54.3678 21.4309 54.7192 20.9039 54.7777 20.9039L54.7192 21.3723H55.7731L56.2416 18.1519C56.2416 16.8051 55.0705 16.7466 54.602 16.7466L53.0796 17.9177ZM55.4804 19.2644C55.4804 19.44 54.7777 20.3769 54.0751 20.3769C53.7237 20.3769 53.6066 20.0841 53.6066 19.9085C53.6066 19.6157 53.7823 19.2058 54.6606 19.2058C54.8363 19.2644 55.4804 19.2644 55.4804 19.2644Z" fill="#DCE5E5"/>
<path d="M56.0664 21.2556C56.0664 21.2556 56.4177 21.3727 57.4131 21.3727C57.7059 21.3727 59.1698 21.4312 59.1698 19.8503C59.1698 18.3865 57.7645 18.6792 57.7645 18.0937C57.7645 17.8009 57.9987 17.6838 58.4086 17.6838C58.5842 17.6838 59.2283 17.7424 59.2283 17.7424L59.404 16.6884C59.404 16.6884 58.9941 16.5713 58.2914 16.5713C57.4131 16.5713 57.1204 16.9226 57.1204 18.0937C57.1204 19.4404 57.9987 19.3233 57.9987 19.8503C57.9987 20.2016 57.5888 20.2602 57.296 20.2602" fill="#DCE5E5"/>
<path d="M80.483 17.2734C80.483 17.2734 80.0146 16.6878 79.3705 16.6878C78.3165 16.6878 77.9652 17.976 77.9652 19.4984C77.9652 20.4353 77.8481 21.4307 78.8435 21.4307C79.5461 21.4307 79.956 20.9622 79.956 20.9622L79.8974 21.3721H81.0685L81.9468 15.751L80.483 17.2734ZM80.4244 18.7958C80.4244 19.4399 79.8974 20.2596 79.2534 20.2596C78.8435 20.2596 78.6093 19.9083 78.6093 19.3227C78.6093 18.3859 79.0191 17.8004 79.5461 17.8004C79.956 17.8004 80.4244 18.0931 80.4244 18.7958Z" fill="#DCE5E5"/>
<path d="M48.2785 21.3145L48.9812 17.0987L49.0983 21.3145H49.918L51.4404 17.0987L50.7964 21.3145H52.026L52.9628 15.6934H51.499L49.8595 19.148L49.8009 15.6934H49.1568L47.166 21.3145H48.2785Z" fill="#DCE5E5"/>
<path d="M65.1992 21.3138H66.4289C66.7802 19.3815 66.8387 17.8006 67.6585 18.0933C67.7756 17.3321 67.9512 17.0394 68.0684 16.7466C68.0684 16.7466 68.0098 16.7466 67.8341 16.7466C67.3072 16.7466 66.8973 17.4492 66.8973 17.4492L67.0144 16.8051" fill="#DCE5E5"/>
<path d="M72.1089 17.9177C72.1089 17.9177 72.6359 17.6834 73.3971 17.6834C73.807 17.6834 74.1583 17.742 74.1583 18.0933C74.1583 18.3275 74.0998 18.3861 74.0998 18.3861C74.0998 18.3861 73.7484 18.3861 73.5728 18.3861C72.5774 18.3861 71.4648 18.796 71.4648 20.1427C71.4648 21.1967 72.1675 21.4309 72.5774 21.4309C73.3971 21.4309 73.7484 20.9039 73.807 20.9039L73.7484 21.3723H74.8024L75.2708 18.1519C75.2708 16.8051 74.0998 16.7466 73.6313 16.7466L72.1089 17.9177ZM74.5096 19.2644C74.5096 19.44 73.807 20.3769 73.1044 20.3769C72.753 20.3769 72.6359 20.0841 72.6359 19.9085C72.6359 19.6157 72.8116 19.2058 73.6899 19.2058C73.9241 19.2644 74.5096 19.2644 74.5096 19.2644Z" fill="#DCE5E5"/>
<path d="M75.0371 21.3138H76.2667C76.6181 19.3815 76.6766 17.8006 77.4964 18.0933C77.6135 17.3321 77.7891 17.0394 77.9062 16.7466C77.9062 16.7466 77.8477 16.7466 77.672 16.7466C77.145 16.7466 76.7352 17.4492 76.7352 17.4492L76.8523 16.8051" fill="#DCE5E5"/>
</g>
<g clip-path="url(#clip1)">
<path d="M13.5254 23.7428L15.3991 13.2031H18.3268L16.5116 23.7428H13.5254Z" fill="#3C58BF"/>
<path d="M13.5254 23.7428L15.9261 13.2031H18.3268L16.5116 23.7428H13.5254Z" fill="#4B5BBE"/>
<path d="M27.1111 13.3215C26.5255 13.0872 25.5887 12.853 24.4176 12.853C21.4899 12.853 19.382 14.3169 19.382 16.4248C19.382 18.0058 20.8458 18.8255 22.0169 19.3525C23.188 19.8795 23.5393 20.2308 23.5393 20.6992C23.5393 21.4019 22.6024 21.7532 21.7827 21.7532C20.6116 21.7532 19.9675 21.5775 18.9721 21.1677L18.5622 20.992L18.1523 23.3927C18.855 23.6855 20.1432 23.9782 21.4899 23.9782C24.5933 23.9782 26.6426 22.5144 26.6426 20.2894C26.6426 19.0597 25.8814 18.1229 24.1248 17.3617C23.0709 16.8347 22.4268 16.5419 22.4268 16.0149C22.4268 15.5465 22.9538 15.0781 24.1248 15.0781C25.1202 15.0781 25.8229 15.2537 26.3499 15.4879L26.6426 15.6051L27.1111 13.3215Z" fill="#3C58BF"/>
<path d="M27.1111 13.3215C26.5255 13.0872 25.5887 12.853 24.4176 12.853C21.4899 12.853 19.909 14.3169 19.909 16.4248C19.909 18.0058 20.8458 18.8255 22.0169 19.3525C23.188 19.8795 23.5393 20.2308 23.5393 20.6992C23.5393 21.4019 22.6024 21.7532 21.7827 21.7532C20.6116 21.7532 19.9675 21.5775 18.9721 21.1677L18.5622 20.992L18.1523 23.3927C18.855 23.6855 20.1432 23.9782 21.4899 23.9782C24.5933 23.9782 26.6426 22.5144 26.6426 20.2894C26.6426 19.0597 25.8814 18.1229 24.1248 17.3617C23.0709 16.8347 22.4268 16.5419 22.4268 16.0149C22.4268 15.5465 22.9538 15.0781 24.1248 15.0781C25.1202 15.0781 25.8229 15.2537 26.3499 15.4879L26.6426 15.6051L27.1111 13.3215Z" fill="#4B5BBE"/>
<path d="M32.1444 13.2031C31.4417 13.2031 30.9148 13.2617 30.622 13.9643L26.2305 23.7428H29.3924L29.9779 21.9862H33.7253L34.0766 23.7428H36.8872L34.428 13.2031H32.1444ZM30.7976 20.2296C30.9733 19.7026 31.9687 17.1262 31.9687 17.1262C31.9687 17.1262 32.2029 16.4821 32.3786 16.0723L32.5543 17.0677C32.5543 17.0677 33.1398 19.7026 33.2569 20.2881H30.7976V20.2296Z" fill="#3C58BF"/>
<path d="M32.847 13.2031C32.1444 13.2031 31.6174 13.2617 31.3246 13.9643L26.2305 23.7428H29.3924L29.9779 21.9862H33.7253L34.0766 23.7428H36.8872L34.428 13.2031H32.847ZM30.7976 20.2296C31.0319 19.644 31.9687 17.1262 31.9687 17.1262C31.9687 17.1262 32.2029 16.4821 32.3786 16.0723L32.5543 17.0677C32.5543 17.0677 33.1398 19.7026 33.2569 20.2881H30.7976V20.2296Z" fill="#4B5BBE"/>
<path d="M8.13958 20.5814L7.84681 19.059C7.31983 17.3024 5.62177 15.3701 3.74805 14.4333L6.38297 23.8019H9.54487L14.2877 13.2622H11.1258L8.13958 20.5814Z" fill="#3C58BF"/>
<path d="M8.13958 20.5814L7.84681 19.059C7.31983 17.3024 5.62177 15.3701 3.74805 14.4333L6.38297 23.8019H9.54487L14.2877 13.2622H11.7114L8.13958 20.5814Z" fill="#4B5BBE"/>
<path d="M0 13.2031L0.526984 13.3202C4.27443 14.1985 6.85079 16.4236 7.84621 19.0585L6.79224 14.0814C6.61658 13.3788 6.08959 13.2031 5.4455 13.2031H0Z" fill="#FFBC00"/>
<path d="M0 13.2031C3.74744 14.0814 6.85079 16.365 7.84621 19L6.85079 14.8426C6.67513 14.14 6.08959 13.7301 5.4455 13.7301L0 13.2031Z" fill="#F7981D"/>
<path d="M0 13.2031C3.74744 14.0814 6.85079 16.365 7.84621 19L7.14356 16.7164C6.9679 16.0137 6.73369 15.3111 5.91393 15.0183L0 13.2031Z" fill="#ED7C00"/>
<path d="M11.0673 20.2299L9.07648 18.2391L8.13962 20.4641L7.9054 19.0003C7.37842 17.2436 5.68036 15.3114 3.80664 14.3745L6.44156 23.7431H9.60346L11.0673 20.2299Z" fill="#7D8CC6"/>
<path d="M16.5116 23.7434L13.9938 21.167L13.5254 23.7434H16.5116Z" fill="#7D8CC6"/>
<path d="M23.2465 20.1123C23.4807 20.3465 23.5978 20.5222 23.5393 20.7564C23.5393 21.459 22.6024 21.8104 21.7827 21.8104C20.6116 21.8104 19.9675 21.6347 18.9721 21.2248L18.5622 21.0492L18.1523 23.4499C18.855 23.7426 20.1432 24.0354 21.4899 24.0354C23.3636 24.0354 24.886 23.5084 25.7643 22.5716L23.2465 20.1123Z" fill="#7D8CC6"/>
<path d="M26.6426 23.7428H29.3946L29.9801 21.9862H33.7276L34.0789 23.7428H36.8895L35.8941 19.4684L32.3808 16.0723L32.5565 17.0091C32.5565 17.0091 33.142 19.644 33.2592 20.2296H30.7999C31.0341 19.644 31.971 17.1262 31.971 17.1262C31.971 17.1262 32.2052 16.4821 32.3808 16.0723" fill="#7D8CC6"/>
</g>
<defs>
<clipPath id="clip0">
<rect width="36.8889" height="36.8889" fill="white" transform="translate(46.1113)"/>
</clipPath>
<clipPath id="clip1">
<rect width="36.8889" height="36.8889" fill="white"/>
</clipPath>
</defs>
</svg>
