<svg width="20" height="21" viewBox="0 0 20 21" fill="none" xmlns="http://www.w3.org/2000/svg">
<g clip-path="url(#clip0)">
<path d="M10.465 0.798C11.516 0.781738 12.561 0.791375 13.6047 0.781738C13.668 2.01101 14.1101 3.26316 15.0099 4.13226C15.9079 5.02305 17.1781 5.4308 18.414 5.56872V8.8024C17.2558 8.76446 16.0922 8.52354 15.0412 8.02485C14.5834 7.81766 14.157 7.55085 13.7396 7.27801C13.7342 9.62452 13.7493 11.968 13.7246 14.3049C13.6619 15.4276 13.2915 16.5448 12.6387 17.4699C11.5883 19.01 9.76515 20.014 7.89264 20.0453C6.74407 20.111 5.59672 19.7978 4.618 19.2208C2.99604 18.2643 1.8547 16.5135 1.68847 14.6343C1.66753 14.2364 1.66432 13.8377 1.67884 13.4394C1.82339 11.9114 2.57926 10.4497 3.75251 9.45528C5.08236 8.29708 6.94524 7.74539 8.68946 8.07183C8.70573 9.26134 8.65814 10.4497 8.65814 11.6392C7.86132 11.3814 6.93018 11.4537 6.23394 11.9373C5.72455 12.2729 5.3396 12.7666 5.13838 13.3424C4.97214 13.7496 5.01973 14.2019 5.02936 14.6343C5.22029 15.9522 6.4875 17.0598 7.84024 16.9399C8.73704 16.9303 9.59651 16.4099 10.0639 15.648C10.2151 15.3812 10.3843 15.1084 10.3933 14.7946C10.4722 13.3581 10.4409 11.9277 10.4506 10.4912C10.4572 7.25392 10.4409 4.02566 10.4656 0.798602L10.465 0.798Z" fill="black"/>
</g>
<defs>
<clipPath id="clip0">
<rect width="19.2732" height="19.2732" fill="white" transform="translate(0.402344 0.781738)"/>
</clipPath>
</defs>
</svg>
